<svg width="191" height="38" viewBox="0 0 191 38" fill="none" xmlns="http://www.w3.org/2000/svg">
    <path
        d="M6.80753 29L0.564631 7.18182H5.60369L9.2152 22.3416H9.39631L13.3807 7.18182H17.6953L21.669 22.3736H21.8608L25.4723 7.18182H30.5114L24.2685 29H19.7727L15.6179 14.7351H15.4474L11.3033 29H6.80753ZM32.9803 29V7.18182H47.682V10.9851H37.5932V16.1839H46.9256V19.9872H37.5932V25.1967H47.7246V29H32.9803ZM51.3494 29V7.18182H60.0852C61.6903 7.18182 63.0291 7.41974 64.1016 7.8956C65.174 8.37145 65.9801 9.03196 66.5199 9.87713C67.0597 10.7152 67.3295 11.6811 67.3295 12.7749C67.3295 13.6271 67.1591 14.3764 66.8182 15.0227C66.4773 15.6619 66.0085 16.1875 65.4119 16.5994C64.8224 17.0043 64.1477 17.2919 63.3878 17.4624V17.6754C64.2188 17.7109 64.9964 17.9453 65.7209 18.3786C66.4524 18.8118 67.0455 19.419 67.5 20.2003C67.9545 20.9744 68.1818 21.8977 68.1818 22.9702C68.1818 24.1278 67.8942 25.1612 67.3189 26.0703C66.7507 26.9723 65.9091 27.6861 64.794 28.2116C63.679 28.7372 62.3047 29 60.6712 29H51.3494ZM55.9624 25.2287H59.723C61.0085 25.2287 61.946 24.9837 62.5355 24.4936C63.125 23.9964 63.4197 23.3359 63.4197 22.5121C63.4197 21.9084 63.2741 21.3757 62.983 20.9141C62.6918 20.4524 62.2763 20.0902 61.7365 19.8274C61.2038 19.5646 60.5682 19.4332 59.8295 19.4332H55.9624V25.2287ZM55.9624 16.3118H59.3821C60.0142 16.3118 60.5753 16.2017 61.0653 15.9815C61.5625 15.7543 61.9531 15.4347 62.2372 15.0227C62.5284 14.6108 62.674 14.1172 62.674 13.5419C62.674 12.7536 62.3935 12.1179 61.8324 11.6349C61.2784 11.152 60.4901 10.9105 59.4673 10.9105H55.9624V16.3118ZM71.1834 29V7.18182H85.6294V10.9851H75.7963V16.1839H84.6706V19.9872H75.7963V29H71.1834ZM88.7322 29V7.18182H93.3452V25.1967H102.699V29H88.7322ZM124.954 18.0909C124.954 20.4702 124.503 22.4943 123.601 24.1634C122.706 25.8324 121.484 27.1072 119.936 27.9879C118.395 28.8615 116.662 29.2983 114.737 29.2983C112.798 29.2983 111.058 28.858 109.517 27.9773C107.976 27.0966 106.758 25.8217 105.863 24.1527C104.968 22.4837 104.521 20.4631 104.521 18.0909C104.521 15.7116 104.968 13.6875 105.863 12.0185C106.758 10.3494 107.976 9.07812 109.517 8.20455C111.058 7.32386 112.798 6.88352 114.737 6.88352C116.662 6.88352 118.395 7.32386 119.936 8.20455C121.484 9.07812 122.706 10.3494 123.601 12.0185C124.503 13.6875 124.954 15.7116 124.954 18.0909ZM120.277 18.0909C120.277 16.5497 120.046 15.25 119.585 14.1918C119.13 13.1335 118.487 12.331 117.656 11.7841C116.825 11.2372 115.852 10.9638 114.737 10.9638C113.622 10.9638 112.649 11.2372 111.818 11.7841C110.987 12.331 110.341 13.1335 109.879 14.1918C109.425 15.25 109.197 16.5497 109.197 18.0909C109.197 19.6321 109.425 20.9318 109.879 21.9901C110.341 23.0483 110.987 23.8509 111.818 24.3977C112.649 24.9446 113.622 25.218 114.737 25.218C115.852 25.218 116.825 24.9446 117.656 24.3977C118.487 23.8509 119.13 23.0483 119.585 21.9901C120.046 20.9318 120.277 19.6321 120.277 18.0909Z"
        fill="#0147B2" />
    <path
        d="M185.551 14.6945C183.282 13.8751 181.026 13.1919 178.708 12.5764C176.664 11.9614 174.319 11.074 172.193 11.0029C171.024 10.9333 170.655 12.7009 171.804 13.2466C171.804 13.2466 171.879 13.3147 171.94 13.2468C172.043 13.587 172.071 13.8592 172.112 14.2672C172.05 14.3351 172.002 14.5389 171.941 14.6069C171.893 14.8108 171.92 15.0829 171.948 15.3551C166.445 17.0474 161.093 18.8759 155.46 19.956C153.785 20.2936 152.097 20.4951 150.319 20.4927C151.049 14.8491 150.767 7.29977 145.352 3.75563C138.187 -0.879132 136.097 8.23076 137.486 13.1974C139.046 19.1843 142.479 22.0455 147.941 22.6654C147.354 26.337 146.07 29.8715 143.643 32.2483C137.943 38.0888 131.004 33.6583 127.379 27.5324C129.73 26.4476 131.801 24.6145 132.949 22.4398C135.088 18.5664 132.256 10.8095 127.067 10.1901C121.954 9.63868 122.578 20.5888 123.413 23.4464C123.632 24.2628 123.926 25.1472 124.282 25.9638C124.145 25.9636 124.083 26.0316 123.947 26.0313C116.058 27.7882 115.284 19.4222 116.315 14.0511C116.506 13.2353 115.248 12.9614 114.982 13.7091C113.452 18.8755 113.173 26.2879 120.126 28.1341C121.808 28.5445 123.585 28.5471 125.246 28.0734C128.03 33.314 132.844 37.6734 138.928 37.002C146.228 36.1963 148.77 28.8553 149.93 22.7363C150.067 22.7363 150.067 22.7363 150.204 22.7366C157.874 22.8836 165.304 19.97 172.318 17.6677C172.536 18.4841 172.831 19.3688 173.05 20.1851C173.241 20.7295 173.829 21.1384 174.376 21.1391C178.649 20.8051 182.825 19.519 186.12 16.9394C187.022 16.3968 186.687 15.1042 185.551 14.6945ZM145.206 19.9412C140.995 18.847 139.797 14.4248 139.29 10.7517C138.599 5.9222 142.734 2.86779 146.344 7.49757C148.157 9.88042 148.287 13.213 148.425 15.9335C148.5 17.3617 148.453 18.9258 148.269 20.4897C147.236 20.4204 146.19 20.2147 145.206 19.9412ZM126.339 25.3548C125.17 22.5649 124.896 19.8441 125.23 17.0564C125.38 15.8325 125.667 14.6088 126.241 13.5215C127.58 10.531 130.596 15.3639 131.218 16.7929C132.785 20.8076 129.607 23.8634 126.339 25.3548ZM175.073 18.5559C174.997 18.4878 175.059 18.4199 174.984 18.3517C175.168 18.148 175.202 17.8079 175.024 17.3997C174.682 16.7191 174.402 15.9706 174.121 15.2221C174.019 14.8819 173.937 14.0657 173.814 14.2015C173.875 14.1336 173.861 13.9975 173.786 13.9294C174.982 14.2711 176.302 14.4771 177.498 14.8187C179.043 15.229 180.664 15.7074 182.284 16.1858C180.22 17.4072 177.705 18.2197 175.073 18.5559Z"
        fill="#E89F02" />
</svg>
