<svg width="20" height="20" viewBox="0 0 20 20" fill="none" xmlns="http://www.w3.org/2000/svg">
<path d="M20 5.99899C19.9998 5.82052 19.9519 5.64535 19.8611 5.49166C19.7704 5.33798 19.6402 5.21137 19.484 5.12499L10.462 0.124994C10.3138 0.0433196 10.1473 0.000488281 9.978 0.000488281C9.80875 0.000488281 9.64225 0.0433196 9.49401 0.124994L0.516004 5.08499C0.360038 5.17136 0.229996 5.29785 0.139346 5.45136C0.0486964 5.60487 0.000734693 5.77983 0.000428719 5.95811C0.000122746 6.13639 0.0474834 6.31151 0.137606 6.46534C0.227728 6.61916 0.357336 6.7461 0.513004 6.83299L9.535 11.873C9.68353 11.9564 9.851 12.0004 10.0214 12.0005C10.1917 12.0007 10.3593 11.9571 10.508 11.874L19.486 6.87399C19.642 6.78727 19.7719 6.6604 19.8622 6.50654C19.9526 6.35268 20.0002 6.17744 20 5.99899ZM10.023 9.85399L3.06 5.96499L9.97701 2.14299L16.941 6.00199L10.023 9.85399Z" fill="black"/>
<path d="M18.515 9.12598L9.99998 13.856L1.48498 9.12598L0.513977 10.874L9.51398 15.874C9.6625 15.9565 9.82959 15.9997 9.99948 15.9997C10.1694 15.9997 10.3365 15.9565 10.485 15.874L19.485 10.874L18.515 9.12598Z" fill="black"/>
<path d="M18.515 13.126L9.99998 17.856L1.48498 13.126L0.513977 14.874L9.51398 19.874C9.6625 19.9565 9.82959 19.9997 9.99948 19.9997C10.1694 19.9997 10.3365 19.9565 10.485 19.874L19.485 14.874L18.515 13.126Z" fill="black"/>
</svg>
