<svg width="20" height="20" viewBox="0 0 20 20" fill="none" xmlns="http://www.w3.org/2000/svg">
<path d="M3.96202 15.674C5.00002 17.331 5.00002 18.567 5.00002 20H7.00002C7.00002 18.479 7.00002 16.756 5.65702 14.611L3.96202 15.674ZM14.504 1.38699C11.977 -0.0900136 5.55002 -1.07401 2.28102 2.30499C-1.08698 5.78599 0.0320206 11.377 2.28202 13.697C2.40002 13.819 2.52602 13.926 2.65102 14.03C2.72302 14.091 2.79702 14.146 2.85602 14.214L4.35002 12.884C4.22009 12.7436 4.08004 12.6129 3.93102 12.493C3.85902 12.433 3.78502 12.374 3.71702 12.305C2.05702 10.594 1.21102 6.28799 3.71802 3.69699C6.24302 1.08599 11.786 2.11799 13.495 3.11599C16.186 4.68499 17.592 7.42399 17.604 7.44899L19.393 6.55399C19.328 6.41899 17.725 3.26499 14.504 1.38699Z" fill="black"/>
<path d="M7.33997 10.8221C6.30997 9.56206 5.55297 8.50506 5.94797 7.31606C6.21097 6.53106 6.76097 5.99106 7.58497 5.71206C8.80897 5.30206 10.505 5.55206 11.625 6.31306L12.748 4.65906C11.1 3.53906 8.76597 3.20206 6.94397 3.81806C5.53597 4.29406 4.50897 5.31306 4.05197 6.68406C3.27597 9.01206 4.85097 10.9381 5.79197 12.0891C5.94097 12.2721 6.08197 12.4431 6.20097 12.6011C8.99997 16.3231 8.99997 18.1091 8.99997 20.0001H11C11 17.9641 11 15.6551 7.79897 11.3991C7.64958 11.2039 7.49655 11.0115 7.33997 10.8221ZM13.131 7.47806C14.966 9.24206 16.165 11.9251 17.02 16.1791L18.981 15.7841C18.042 11.1061 16.665 8.09906 14.518 6.03606L13.131 7.47806Z" fill="black"/>
<path d="M9.55598 7.16895L8.44098 8.82895C8.46798 8.84795 11.152 10.7089 12.242 14.5529L14.166 14.0079C12.867 9.42595 9.68998 7.25895 9.55598 7.16895ZM12.688 16.4589C12.898 17.6269 13 18.7849 13 19.9999H15C15 18.6649 14.888 17.3919 14.657 16.1049L12.688 16.4589Z" fill="black"/>
</svg>
