<svg width="19" height="20" viewBox="0 0 19 20" fill="none" xmlns="http://www.w3.org/2000/svg">
<path d="M16 1C14.346 1 13 2.346 13 4C13 4.502 13.136 4.968 13.354 5.385L12.238 6.687C11.5779 6.23859 10.798 5.99921 10 6C9.261 6 8.575 6.216 7.98 6.566L6.566 5.152C6.84689 4.64643 6.99613 4.07835 7 3.5C7 1.57 5.43 0 3.5 0C1.57 0 0 1.57 0 3.5C0 5.43 1.57 7 3.5 7C4.101 7 4.658 6.834 5.152 6.566L6.566 7.98C6.19972 8.59044 6.00424 9.28811 6 10C6 10.997 6.38 11.899 6.985 12.601L5.293 14.293L5.318 14.318C4.90916 14.1115 4.45801 14.0027 4 14C2.346 14 1 15.346 1 17C1 18.654 2.346 20 4 20C5.654 20 7 18.654 7 17C7 16.524 6.879 16.081 6.682 15.682L6.707 15.707L8.661 13.753C9.082 13.903 9.528 14 10 14C12.206 14 14 12.206 14 10C13.9957 9.3788 13.8453 8.76733 13.561 8.215L14.814 6.753C15.178 6.911 15.578 7 16 7C17.654 7 19 5.654 19 4C19 2.346 17.654 1 16 1ZM4 18C3.73478 18 3.48043 17.8946 3.29289 17.7071C3.10536 17.5196 3 17.2652 3 17C3 16.7348 3.10536 16.4804 3.29289 16.2929C3.48043 16.1054 3.73478 16 4 16C4.26522 16 4.51957 16.1054 4.70711 16.2929C4.89464 16.4804 5 16.7348 5 17C5 17.2652 4.89464 17.5196 4.70711 17.7071C4.51957 17.8946 4.26522 18 4 18ZM2 3.5C2 2.673 2.673 2 3.5 2C4.327 2 5 2.673 5 3.5C5 4.327 4.327 5 3.5 5C2.673 5 2 4.327 2 3.5ZM10 12C8.897 12 8 11.103 8 10C8 8.897 8.897 8 10 8C11.103 8 12 8.897 12 10C12 11.103 11.103 12 10 12ZM16 5C15.7348 5 15.4804 4.89464 15.2929 4.70711C15.1054 4.51957 15 4.26522 15 4C15 3.73478 15.1054 3.48043 15.2929 3.29289C15.4804 3.10536 15.7348 3 16 3C16.2652 3 16.5196 3.10536 16.7071 3.29289C16.8946 3.48043 17 3.73478 17 4C17 4.26522 16.8946 4.51957 16.7071 4.70711C16.5196 4.89464 16.2652 5 16 5Z" fill="black"/>
</svg>
