<svg width="19" height="17" viewBox="0 0 19 17" fill="none" xmlns="http://www.w3.org/2000/svg">
<path d="M6 9.99999C8.28 9.99999 10 8.27999 10 5.99999C10 3.71999 8.28 1.99999 6 1.99999C3.72 1.99999 2 3.71999 2 5.99999C2 8.27999 3.72 9.99999 6 9.99999ZM6 3.99999C7.178 3.99999 8 4.82199 8 5.99999C8 7.17799 7.178 7.99999 6 7.99999C4.822 7.99999 4 7.17799 4 5.99999C4 4.82199 4.822 3.99999 6 3.99999ZM7 11H5C2.243 11 0 13.243 0 16V17H2V16C2 14.346 3.346 13 5 13H7C8.654 13 10 14.346 10 16V17H12V16C12 13.243 9.757 11 7 11ZM16.364 0.635986L14.95 2.04999C16.271 3.37299 17 5.13099 17 6.99999C17 8.86899 16.271 10.627 14.95 11.95L16.364 13.364C18.064 11.663 19 9.40299 19 6.99999C19 4.59699 18.064 2.33699 16.364 0.635986Z" fill="black"/>
<path d="M13.535 3.46411L12.121 4.88011C12.688 5.44511 13 6.19811 13 7.00011C13 7.80211 12.688 8.55511 12.121 9.12011L13.535 10.5361C14.479 9.59211 15 8.33711 15 7.00011C15 5.66311 14.479 4.40811 13.535 3.46411Z" fill="black"/>
</svg>
