<svg width="20" height="20" viewBox="0 0 20 20" fill="none" xmlns="http://www.w3.org/2000/svg">
<path d="M10 2C5.121 2 1 6.121 1 11C1 15.879 5.121 20 10 20C14.879 20 19 15.879 19 11C19 6.121 14.879 2 10 2ZM10 18C6.206 18 3 14.794 3 11C3 7.206 6.206 4 10 4C13.794 4 17 7.206 17 11C17 14.794 13.794 18 10 18Z" fill="black"/>
<path d="M11 10V6.00002H8.99998V12H15V10H11ZM15.284 1.70702L16.696 0.291016L19.706 3.29102L18.293 4.70802L15.284 1.70702ZM4.69798 1.70702L1.70798 4.70602L0.289978 3.29402L3.27998 0.294016L4.69798 1.70702Z" fill="black"/>
</svg>
